<svg width="812" height="1002" viewBox="0 0 812 1002" fill="none" xmlns="http://www.w3.org/2000/svg">
<g clip-path="url(#clip0_119_2023)">
<path fill-rule="evenodd" clip-rule="evenodd" d="M374.18 657.87C394.06 680.61 424.62 723.03 438.85 781.54C460.9 872.19 494.59 926.09 589.53 904.04C684.47 881.99 697.33 706.2 534.4 622.28L506.22 641.28C506.22 641.28 566.36 694.51 574.94 777.2C574.94 777.2 524.1 650.91 454.27 641.11C429.71 637.98 412.39 622.66 403.56 612.79C403.26 613.72 402.9 614.65 402.5 615.58C400.65 619.79 398.11 623.03 395.5 626.73C392.16 631.47 389.2 636.49 385.84 641.23C385.28 642.06 384.77 642.92 384.19 643.75C382.664 645.933 380.805 647.864 378.68 649.47C377.761 652.168 376.443 654.712 374.77 657.02L374.18 657.87Z" fill="#ED1C24"/>
<path fill-rule="evenodd" clip-rule="evenodd" d="M101.26 681.34L101.36 681.62C99.9502 682.081 98.653 682.833 97.5522 683.826C96.4514 684.82 95.5717 686.035 94.97 687.39C94.4348 688.656 94.159 690.016 94.159 691.39C94.159 692.764 94.4348 694.124 94.97 695.39L153.24 675.6C155.286 674.922 157.071 673.626 158.35 671.89C159.445 670.557 160.061 668.895 160.1 667.17L160.34 667.09L168.81 691.9L168.57 691.99C165.903 688.87 162.367 688.067 157.96 689.58L99.76 709.45C100.453 712.101 102.163 714.372 104.52 715.77C105.672 716.465 106.956 716.913 108.29 717.085C109.624 717.257 110.979 717.15 112.27 716.77L112.36 717.01L90.64 724.45L78.64 689.08L101.31 681.34H101.26ZM151.47 623.01H151.27C151.118 623.951 150.684 624.824 150.025 625.514C149.366 626.203 148.513 626.676 147.58 626.87L75.54 647.77C72.54 648.65 70.83 648.48 70.34 647.24H70.14L75.36 674.13H75.55C75.63 672.51 77.15 671.55 80.09 671.23L154.99 663.57C155.935 663.366 156.921 663.504 157.773 663.96C158.625 664.416 159.287 665.161 159.64 666.06H159.83L155.97 646.17H155.78C155.775 647.181 155.375 648.15 154.664 648.869C153.954 649.589 152.991 650.002 151.98 650.02L143.78 650.86L142.23 642.86L150.12 640.68C152.27 640.09 153.97 640.94 155.25 643.19H155.39L151.49 623.07L151.47 623.01ZM128.33 646.77L129.43 652.4L96.1 656.12L96.04 655.79L128.33 646.79V646.77ZM90.46 592.47V592.77C88.9787 592.807 87.5216 593.154 86.1831 593.79C84.8446 594.426 83.6545 595.335 82.69 596.46C81.8049 597.525 81.144 598.758 80.7471 600.084C80.3501 601.411 80.2253 602.804 80.38 604.18L141.89 601.87C144.059 601.816 146.157 601.086 147.89 599.78C149.303 598.813 150.357 597.407 150.89 595.78H151.14L152.14 621.98H151.89C150.243 618.233 147.087 616.45 142.42 616.63L80.96 618.98C80.8845 621.703 81.8748 624.347 83.72 626.35C84.6142 627.36 85.7092 628.173 86.9352 628.736C88.1611 629.299 89.4911 629.6 90.84 629.62V629.87L67.94 630.75L66.51 593.4L90.45 592.48L90.46 592.47ZM94.9 543.29V543.59C93.4296 543.408 91.9374 543.536 90.5198 543.967C89.1021 544.398 87.7906 545.121 86.67 546.09C85.6382 547.012 84.8034 548.133 84.2157 549.386C83.628 550.639 83.2996 551.997 83.25 553.38L144.42 560.21C146.56 560.464 148.726 560.048 150.62 559.02C152.177 558.282 153.441 557.042 154.21 555.5H154.46L151.57 581.56H151.32C150.247 577.613 147.387 575.383 142.74 574.87L81.62 568.09C81.1376 570.773 81.7265 573.537 83.26 575.79C83.9942 576.921 84.9557 577.886 86.0834 578.625C87.2111 579.363 88.4802 579.859 89.81 580.08V580.33L67.03 577.8L71.14 540.65L94.96 543.29H94.9ZM150.44 510.94L94.18 496.58C89.5133 495.38 85.79 496.087 83.01 498.7C80.8 500.82 79.09 504.37 77.81 509.36C76.5 514.5 76.26 518.49 77.12 521.36C78.22 525.09 81.17 527.58 85.96 528.8L142.22 543.16C148.06 544.654 152.423 544.173 155.31 541.72C157.59 539.753 159.367 536.014 160.64 530.5C161.91 524.83 161.91 520.59 160.64 517.74C159.18 514.574 155.787 512.307 150.46 510.94H150.44ZM100.78 513.39L139.03 523.15C141.79 523.817 143.01 524.787 142.69 526.06C142.611 526.517 142.359 526.926 141.987 527.201C141.614 527.477 141.15 527.598 140.69 527.54C139.814 527.416 138.949 527.229 138.1 526.98L99.81 517.21C96.58 516.38 95.13 515.29 95.48 513.92C95.78 512.73 97.55 512.56 100.78 513.39ZM167.44 472.9C172.44 475.26 175.3 478.14 176.11 481.54C176.84 484.54 176.03 488.74 173.68 494.06C171.33 499.38 168.9 502.57 166.29 504.06C162.957 505.913 158.583 505.543 153.17 502.95L100.72 478.01C96.26 475.89 93.8467 472.89 93.48 469.01C93.1933 466.03 94.1933 462.147 96.48 457.36C98.64 452.77 101.05 449.57 103.64 447.91C106.84 445.91 110.64 445.91 115.01 447.98L167.44 472.9ZM118.23 465.77C115.223 464.33 113.453 464.163 112.92 465.27C112.32 466.54 113.53 467.9 116.54 469.33L152.24 486.33C153.022 486.727 153.835 487.061 154.67 487.33C155.109 487.477 155.588 487.449 156.008 487.251C156.427 487.054 156.753 486.702 156.92 486.27C157.47 485.11 156.46 483.93 153.92 482.7L118.23 465.77ZM201.36 427.23L178.99 412.48C177.945 411.712 176.754 411.164 175.491 410.87C174.227 410.576 172.917 410.542 171.64 410.77L157.09 413.85C156.376 414.013 155.636 414.026 154.916 413.888C154.197 413.75 153.514 413.465 152.91 413.05L147.13 409.24C144.65 407.613 144.403 405.43 146.39 402.69C149.397 398.537 154.347 398.043 161.24 401.21L161.43 400.93L147.28 391.62C143.62 389.2 140.243 388.977 137.15 390.95C135.24 392.17 133.1 394.63 130.69 398.35C125.3 406.62 125.43 412.62 131.02 416.3L148.64 427.9C150.124 428.931 151.697 429.828 153.34 430.58C155.343 431.248 157.501 431.293 159.53 430.71L171.37 428.08C172.294 427.813 173.263 427.735 174.218 427.85C175.173 427.965 176.096 428.271 176.93 428.75L182.64 432.48C185.4 434.287 185.687 436.847 183.5 440.16C182.742 441.393 181.621 442.361 180.29 442.931C178.96 443.5 177.485 443.643 176.07 443.34C173.651 442.836 171.301 442.044 169.07 440.98L168.91 441.24L185.1 451.9C190.86 455.693 196.457 453.47 201.89 445.23C207.323 436.99 207.143 430.99 201.35 427.23H201.36ZM187.78 338.77C187.249 340.094 187.111 341.543 187.38 342.943C187.65 344.344 188.316 345.638 189.3 346.67L230.64 394.31C234.22 398.437 235.553 402.39 234.64 406.17C233.867 409.39 231.297 413 226.93 417C222.563 421 218.817 423.19 215.69 423.57C211.61 424.157 207.61 422.187 203.69 417.66L162.36 369.97C161.468 368.79 160.224 367.923 158.809 367.494C157.393 367.065 155.878 367.095 154.48 367.58L154.28 367.42L164.87 358.24C167.45 356.007 170.317 356.707 173.47 360.34L209.57 401.99C211.39 404.09 213.1 404.48 214.71 403.13C216.32 401.78 216.12 400.13 214.25 397.94L178.15 356.29C175 352.65 174.7 349.72 177.29 347.48L187.64 338.53L187.81 338.72L187.78 338.77ZM249.78 344.54C251.65 347.38 252.3 350.04 251.72 352.49C251.03 355.37 249.05 357.9 245.8 360.04L240.71 363.39L253.05 382.13C255.64 386.06 258.91 387.57 262.89 386.68L263.02 386.89L241.17 401.28L241.03 401.07C243.383 397.737 243.273 394.113 240.7 390.2L204.28 334.84C201.69 330.91 198.84 329.39 195.76 330.3L195.62 330.09L215.62 316.93C219.43 314.41 222.52 313.28 224.91 313.51C226.95 313.691 228.874 314.533 230.39 315.91C231.803 317.358 233.05 318.957 234.11 320.68L249.79 344.49L249.78 344.54ZM234.36 347.12L223.83 331.12C222.68 329.37 221.43 328.93 220.08 329.82L219.08 330.49L233.2 351.93L233.9 351.46C235.45 350.46 235.62 348.99 234.38 347.1L234.36 347.12ZM285.03 324.17L270.77 299.48C269.818 297.69 268.667 296.013 267.34 294.48C265.907 293.019 264.035 292.067 262.01 291.77C259.65 291.39 256.493 292.343 252.54 294.63L231.81 306.63L231.93 306.85C235.06 306.13 237.82 307.85 240.17 311.85L273.28 369.21C275.613 373.263 275.51 376.89 272.97 380.09L273.09 380.3L295.75 367.22L295.63 367C291.63 367.667 288.447 365.96 286.08 361.88L274.87 342.45L280.14 339.4C283.52 337.46 285.64 335.05 286.5 332.21C287.22 329.8 286.73 327.11 285.03 324.21V324.17ZM269.48 325.77L259.91 309.2C258.91 307.39 257.64 306.87 256.24 307.68L255.18 308.29L268.01 330.52L268.74 330.1C270.36 329.173 270.607 327.73 269.48 325.77ZM343.1 349.4L306.64 361.88L306.56 361.64C309.68 358.973 310.483 355.437 308.97 351.03L287.57 288.36C286.05 283.9 283.683 281.72 280.47 281.82L280.38 281.59L303.04 273.85L303.12 274.09C300.54 275.93 300 279.09 301.54 283.59L321.54 342.17L329.96 339.3C334.02 337.91 335.78 333.7 335.2 326.66L335.34 326.61L343.13 349.42L343.1 349.4ZM372.99 344.4L372.94 344.15C371.257 343.855 369.719 343.015 368.56 341.76C367.019 340.25 365.973 338.308 365.56 336.19L352.94 271.13C352.04 266.463 353 263.397 355.82 261.93V261.69L332.31 266.25L332.36 266.5C335.55 266.83 337.61 269.32 338.5 273.94L351.12 338.94C352.013 343.527 350.733 346.92 347.28 349.12V349.37L372.97 344.37L372.99 344.4ZM412.32 342.48L374.24 343.99V343.77C378.02 342.123 379.817 338.963 379.63 334.29L377.1 268.12C376.92 263.38 375.27 260.613 372.15 259.82V259.57L409.01 258.16L409.76 277.53H409.5C408.14 273.42 404.89 271.47 399.79 271.66L392.02 271.96L392.64 288.27C392.77 291.6 394.02 293.27 396.42 293.19C397.144 293.14 397.848 292.935 398.486 292.59C399.124 292.245 399.681 291.768 400.12 291.19C401.178 290.038 401.907 288.621 402.23 287.09H402.49L403.49 312.63H403.29C402.699 311.035 401.712 309.617 400.42 308.51C399.605 307.719 398.549 307.222 397.42 307.1C396.857 307.079 396.298 307.203 395.798 307.461C395.297 307.718 394.87 308.1 394.56 308.57C393.821 309.652 393.468 310.953 393.56 312.26L394.24 329.98L402.09 329.68C404.84 329.57 406.91 328.97 408.28 327.86C409.722 326.58 410.781 324.926 411.34 323.08H411.59L412.33 342.45L412.32 342.48ZM447.02 335.95C446.26 342.823 440.99 345.713 431.21 344.62C421.43 343.527 416.907 339.55 417.64 332.69L419.78 313.42H420.08C420.14 315.904 420.496 318.371 421.14 320.77C421.514 322.17 422.314 323.418 423.428 324.344C424.542 325.27 425.916 325.828 427.36 325.94C431.3 326.38 433.45 324.96 433.81 321.68L434.56 314.94C434.605 313.98 434.456 313.02 434.123 312.118C433.789 311.216 433.278 310.391 432.62 309.69L424.89 300.33C423.448 298.79 422.509 296.847 422.2 294.76C422.118 292.956 422.201 291.149 422.45 289.36L424.77 268.36C425.51 261.7 430.77 258.86 440.6 259.9C445.01 260.35 448.18 261.14 450.13 262.29C453.31 264.14 454.63 267.29 454.13 271.61L452.26 288.45H451.93C451.61 280.87 448.92 276.683 443.86 275.89C440.53 275.37 438.69 276.58 438.36 279.53L437.6 286.41C437.505 287.136 437.56 287.875 437.763 288.578C437.966 289.282 438.312 289.936 438.78 290.5L448.14 302.06C448.922 303.092 449.487 304.272 449.798 305.529C450.109 306.786 450.161 308.093 449.95 309.37L447.02 335.95Z" fill="white"/>
<path fill-rule="evenodd" clip-rule="evenodd" d="M768.88 58.53C771.574 58.5378 774.223 59.2257 776.58 60.53C779.058 61.8449 781.095 63.8581 782.44 66.32C783.806 68.7017 784.524 71.3995 784.524 74.145C784.524 76.8906 783.806 79.5883 782.44 81.97C781.103 84.4199 779.09 86.4334 776.64 87.77C774.264 89.1266 771.576 89.8401 768.84 89.8401C766.104 89.8401 763.416 89.1266 761.04 87.77C758.588 86.4281 756.572 84.4119 755.23 81.96C753.864 79.5783 753.146 76.8806 753.146 74.135C753.146 71.3895 753.864 68.6917 755.23 66.31C756.584 63.852 758.624 61.8404 761.1 60.52C763.463 59.2124 766.119 58.5244 768.82 58.52L768.88 58.53ZM768.88 61.12C766.624 61.133 764.408 61.7179 762.44 62.82C760.375 63.9243 758.675 65.6061 757.55 67.66C756.4 69.6422 755.794 71.8932 755.794 74.185C755.794 76.4768 756.4 78.7278 757.55 80.71C758.674 82.7512 760.357 84.43 762.4 85.55C764.376 86.691 766.618 87.2917 768.9 87.2917C771.182 87.2917 773.424 86.691 775.4 85.55C777.438 84.4267 779.117 82.7485 780.24 80.71C781.371 78.7305 781.966 76.49 781.966 74.21C781.966 71.93 781.371 69.6895 780.24 67.71C779.115 65.6561 777.415 63.9743 775.35 62.87C773.39 61.7732 771.186 61.1885 768.94 61.17L768.88 61.12ZM761.99 82.86H764.71V75.71H766.32C767.086 75.6575 767.848 75.8577 768.49 76.28C769.673 77.4068 770.642 78.7382 771.35 80.21L772.85 82.86H776.16L774.1 79.56C773.404 78.3602 772.579 77.2402 771.64 76.22C771.217 75.8392 770.73 75.5377 770.2 75.33C771.502 75.2596 772.729 74.7028 773.64 73.77C774.067 73.3526 774.405 72.8529 774.634 72.3012C774.862 71.7495 774.977 71.1572 774.97 70.56C774.967 69.6751 774.691 68.8127 774.18 68.09C773.669 67.3269 772.92 66.754 772.05 66.46C770.649 66.088 769.198 65.9329 767.75 66H761.95V82.86H761.99ZM764.71 73.37H768.02C769.144 73.4848 770.275 73.2397 771.25 72.67C771.53 72.4512 771.754 72.1698 771.905 71.8485C772.056 71.5272 772.13 71.1749 772.12 70.82C772.122 70.3407 771.975 69.8726 771.7 69.48C771.412 69.0792 771.012 68.773 770.55 68.6C769.658 68.3589 768.733 68.261 767.81 68.31H764.71V73.37Z" fill="white"/>
<path fill-rule="evenodd" clip-rule="evenodd" d="M91.3 20.2499C109.08 6.90991 129.23 2.63992 150.81 4.64992C172.39 6.65991 188.81 10.0999 200.38 14.8699C218.51 22.3499 232.21 34.0499 241.47 50.2199C245.914 57.8192 249.378 65.9505 251.78 74.4199C254.114 82.8518 255.341 91.5515 255.43 100.3C255.451 109.514 254.397 118.7 252.29 127.67C249.889 137.559 246.54 147.193 242.29 156.44C233.37 176.59 219.79 194.24 202.23 211.38C189.3 224 174.23 236.96 156.83 251.63C139.07 266.63 122.97 277.13 107.41 281.63C87.72 287.29 71.82 281.47 60.69 263.38C54.85 253.89 50.51 242.47 47.31 229.5C43.896 215.18 41.8171 200.574 41.1 185.87C40.2271 169.724 40.5613 153.536 42.1 137.44C43.6563 121.143 46.5189 104.998 50.66 89.1599C58.79 58.2399 72 34.7699 91.3 20.2499ZM96.64 153.83C93.79 176.69 96.07 195.11 103.95 208.14C111.5 220.61 124.2 223.55 141.64 219.02C148.36 217.28 156.45 209.92 166.79 197.68C176.867 185.912 185.588 173.047 192.79 159.33C198.35 148.59 202.02 136.23 203.64 122.1C205.26 107.97 204.04 95.4499 200.35 84.0999C196.924 73.0539 189.78 63.5347 180.13 57.1599C170.3 50.5399 157.13 50.0999 140.28 57.0899C128.38 62.0399 118.7 74.3199 111.41 93.9999C104.196 113.307 99.2393 133.384 96.64 153.83ZM339.73 0.319913C357.56 1.67991 370.73 6.25991 379.2 13.9099C387.67 21.5599 394.05 29.4799 398.36 37.9099C395.871 38.814 393.334 39.5785 390.76 40.1999C388.165 40.833 385.642 41.7311 383.23 42.8799C372.23 30.8799 360.79 24.1799 348.79 23.0199C336.79 21.8599 327.08 23.5499 319.47 27.9499C311.86 32.3499 307.64 38.1799 307.05 45.2199C306.46 52.2599 311.94 57.3599 323.71 60.4399C334.16 63.1699 345.81 65.6199 358.51 68.4399C370.39 70.8615 382 74.4557 393.17 79.1699C402.543 83.1384 410.818 89.3137 417.29 97.1699C423.05 104.3 424.13 113.25 420.58 123.9C416.96 134.77 409.89 143.5 399.75 150.7C388.879 158.546 376.906 164.74 364.22 169.08C350.82 173.58 336.73 177.72 322.03 179.93C307.33 182.14 293.49 183.17 281.03 181.16C264.54 178.52 256.32 171.69 256.25 160.98C256.18 150.27 259.88 139.77 267.49 130.63C274.779 121.697 284.507 115.075 295.49 111.57C306.49 108.03 314.95 111.11 320.72 119.74C321.818 121.254 322.427 123.066 322.466 124.936C322.505 126.805 321.973 128.641 320.94 130.2C318.86 133.75 316.11 135.56 312.75 135.45C312.82 129.15 310.5 125.45 305.75 124.85C301.003 124.281 296.214 125.485 292.3 128.23C288.276 130.691 285.346 134.598 284.11 139.15C282.9 143.7 285.87 147.45 292.96 150.42C297.21 152.2 303.05 152.42 310.43 151.76C318.178 150.981 325.81 149.303 333.17 146.76C340.583 144.16 347.771 140.956 354.66 137.18C361.21 133.67 365.85 129.6 368.55 124.85C373.08 116.85 372.55 110.64 366.8 106.08C361.05 101.52 353.28 97.4699 343.31 94.6699C333.34 91.8699 322.77 89.3899 311.58 87.0599C300.39 84.7299 291.64 81.8699 285.41 77.6199C271.33 68.0599 263.98 57.9399 263.18 47.7699C262.73 42.8984 263.343 37.9873 264.976 33.3757C266.609 28.7642 269.224 24.5622 272.64 21.0599C279.7 13.5699 289.5 7.90991 301.96 4.22991C314.192 0.633359 326.98 -0.691848 339.69 0.319913H339.73ZM451.22 157.15C445.85 151.37 441.53 141.57 438.35 127.88C436.78 121.11 435.28 114.04 434.11 106.75C432.94 99.4599 432.02 91.8499 431.19 83.9999C430.36 76.1499 429.57 68.4299 429.14 60.8599C428.71 53.2899 428.33 45.7899 428.14 38.4599C427.64 23.7699 427.53 12.6799 427.64 5.21991C449.207 5.45991 470.823 5.75325 492.49 6.09992C490 10.3599 487.36 14.3699 484.67 18.0999C481.98 21.8299 479.76 27.0099 478.01 33.6999C476.84 38.2099 475.6 46.7999 474.29 59.3799C472.984 72.1479 473.068 85.02 474.54 97.7699C475.777 109.889 479.458 121.632 485.36 132.29C491.21 142.67 500.49 148.4 513.58 148.87C527.91 149.39 537.84 144.11 543.04 132.64C548.37 120.9 550.72 106.64 550.21 90.1699C549.714 73.5314 547.171 57.0172 542.64 40.9999C538.11 24.9999 533.07 12.9999 527.8 4.75992L592.58 4.85991C592.799 22.2132 593.958 39.5419 596.05 56.7699C597.17 66.6299 597.877 76.4099 598.17 86.1099C598.46 95.8299 598.56 105.51 598.17 115.02C597.39 134.02 593.76 150.75 587.17 164.82C580.71 178.5 568.75 187.25 551.34 190.17C545.29 191.17 537.77 190.32 528.53 188.98C518.945 187.631 509.501 185.426 500.31 182.39C490.64 179.13 481.34 175.77 472.49 171.77C463.64 167.77 456.59 162.93 451.22 157.16V157.15ZM686.04 0.849916C703.89 3.11992 717.17 11.2299 725.52 25.3999C734.073 40.1918 740.509 56.1102 744.64 72.6899C742.235 73.8947 739.673 74.7596 737.03 75.2599C734.351 75.8415 731.784 76.8547 729.43 78.2599C718.43 54.5299 707.09 41.2599 695.07 37.7599C683.05 34.2599 673.44 35.5099 665.75 40.7599C662.054 43.1553 658.99 46.4047 656.814 50.2337C654.638 54.0628 653.416 58.3591 653.25 62.7599C652.63 72.3399 658.37 80.7599 669.99 89.1399C680.64 96.7699 692.14 105.45 704.76 114.85C717.774 124.588 729.428 136.022 739.41 148.85C750.005 162.532 758.198 177.914 763.64 194.34C769.45 211.48 770.54 230.09 766.93 249.52C763.32 268.95 756.52 282.28 746.09 288.09C735.97 293.73 723.92 293.01 710.56 288.51C697.2 284.01 683.36 274.64 668.31 263.08C653.89 252.02 640.42 238.69 627.31 223.95C611.47 206.16 602.68 192.19 602.6 180.11C602.52 168.03 606.33 159.17 613.86 153.17C621.61 146.99 630.8 144.81 641.86 147.17C652.92 149.53 661.34 158.43 667.08 174.4C669.38 180.8 669.4 185.93 667.3 189.72C665.2 193.51 662.48 194.08 659.04 191.55C659.12 182.64 656.84 176.17 652.1 172.07C647.36 167.97 642.91 166.33 638.64 166.77C634.37 167.21 631.74 169.77 630.53 174.55C629.32 179.33 632.27 186.34 639.3 196.18C644.065 202.738 649.997 208.362 656.8 212.77C663.912 217.394 671.545 221.164 679.54 224C687.26 226.84 694.47 228.17 701.03 227.21C707.59 226.25 712.26 222.4 714.92 216.08C719.49 205.22 718.92 193.92 713.17 182.66C706.968 170.858 699.037 160.048 689.64 150.59C679.772 140.504 669.162 131.171 657.9 122.67C646.9 114.31 638.18 106.02 631.65 97.9399C617.85 80.8799 610.3 67.0199 609.5 55.1199C608.7 43.2199 611.94 33.5399 619 25.3199C626.06 17.0999 635.94 10.5999 648.32 5.98992C660.88 1.30992 673.41 -0.760084 686.04 0.849916Z" fill="white"/>
<path fill-rule="evenodd" clip-rule="evenodd" d="M150.25 895.19C150.279 895.593 150.401 895.984 150.608 896.331C150.814 896.678 151.099 896.972 151.44 897.19L165.44 907.59C165.744 907.842 166.099 908.023 166.481 908.122C166.863 908.22 167.262 908.233 167.65 908.16C167.73 907.66 167.5 907.39 167.4 906.83L166.96 904.24C166.89 904 166.83 903.85 166.78 903.6C166.73 903.35 166.78 903.22 166.73 902.95C166.66 902.48 166.47 902.15 166.43 901.67L165.8 898.44C165.812 898.201 165.775 897.963 165.69 897.74C164.74 897.43 163.69 897.95 162.47 897.05C161.25 896.15 161.38 894.97 160.81 894.11C160.43 894.11 160.36 894.22 159.52 894.23L156.91 894.53C156.44 894.62 156.05 894.53 155.59 894.62L150.5 895.14C150.28 895.15 150.48 895.07 150.25 895.19Z" fill="white"/>
<path fill-rule="evenodd" clip-rule="evenodd" d="M158.93 884C159.23 885.11 161.53 891 162.13 892.67C162.35 893.28 162.9 895.2 163.39 895.59C163.88 895.98 165.92 895.99 166.49 896.03L169.61 896.21L175.85 896.56C175.772 896.181 175.612 895.825 175.38 895.515C175.149 895.206 174.852 894.951 174.51 894.77L163.34 886.47C162.08 885.57 160.3 883.82 158.93 884Z" fill="white"/>
<path fill-rule="evenodd" clip-rule="evenodd" d="M157.05 884.77L150.65 893.37C151.06 893.37 151.45 893.37 151.86 893.32C152.27 893.27 152.52 893.18 153.02 893.17C153.436 893.179 153.85 893.125 154.25 893.01C154.66 892.96 155.01 893.01 155.42 892.95L160.19 892.4C160.02 891.743 159.796 891.1 159.52 890.48C159.25 889.77 159.05 889.22 158.81 888.48L157.38 884.63C157.11 884.69 157.5 884.45 157.05 884.77Z" fill="white"/>
<path fill-rule="evenodd" clip-rule="evenodd" d="M613.64 740.85C613.64 740.85 612.25 736.28 607.64 736.27C603.03 736.26 620.45 768.75 619.55 796.17C618.65 823.59 609.71 853.17 621.18 853.42C632.65 853.67 643.52 828.32 636.86 790.78C630.2 753.24 613.64 740.85 613.64 740.85Z" fill="white"/>
<path fill-rule="evenodd" clip-rule="evenodd" d="M407.85 652.05C407.85 652.05 405.29 652.84 406.67 656.19C408.05 659.54 426.64 682.24 431.53 701.77C436.42 721.3 440.6 746.95 445.73 759.18C450.86 771.41 459.73 783.64 469.4 773.38C479.07 763.12 463.09 756.02 457.57 736.29C452.05 716.56 432.91 658.37 407.85 652.05Z" fill="white"/>
<path fill-rule="evenodd" clip-rule="evenodd" d="M482 851.71C488 860.65 506.57 873.04 513.95 871.57C548.46 864.66 528.16 888.72 570.39 891.2C576.24 891.54 581.39 899.96 581.14 907.07C580.78 916.48 557.3 916.32 550.06 917.17C537.54 918.64 529.73 925.01 528.01 930.17C525.06 939.02 523.01 947.43 527.51 955.75C535.88 971.24 520.63 983.3 511.77 980.84C502.91 978.38 489.04 960.84 506.85 952.19C524.66 943.54 524.97 931.41 514.23 924.27C508.14 920.21 484.94 899.04 466.86 866.45C436.81 812.27 460.34 819.41 482 851.71Z" fill="white"/>
<path fill-rule="evenodd" clip-rule="evenodd" d="M169.29 907.19L174.64 900.01L175.82 898.29C175.111 898.192 174.396 898.139 173.68 898.13L169.51 897.87C168.845 897.81 168.178 897.787 167.51 897.8C167.45 898.22 167.69 898.56 167.73 899L168.64 903.77C168.743 904.929 168.961 906.074 169.29 907.19Z" fill="white"/>
<path fill-rule="evenodd" clip-rule="evenodd" d="M407.24 452.06C402.96 449.64 398.24 444.7 393.73 444.46C387.12 444.11 383.87 451.9 381.35 454.96L380.41 454.41L379.96 454.14L373.64 450.45C370.91 456.53 363.39 463.91 360.41 470.13L367.41 475.35C363.57 481.35 360.07 483.9 361.16 490.15C362.16 495.86 370.64 498.21 373.48 501.89L343.73 544.77C329.99 564.51 325.54 544.94 311.81 545.97C298.52 546.97 294.81 557.97 286.05 570.47C279.98 579.12 278.83 579.04 286.23 584.14L365.23 638.45C368.99 639.19 370.5 635.45 372.07 633.25C375.07 629.02 378.79 622.91 381.73 618.75C386.42 612.11 389.56 609.15 387.86 599.4C386.23 590.11 376.36 588.91 373.38 582.09C371.38 577.58 373.28 572.82 375.07 570.32L406.74 524.57C411.29 526.81 421.5 538.89 428.66 523.64C424.54 521.08 420.86 518.23 416.76 515.34L386.76 494.88C384.53 493.37 382.34 492.71 382.92 489.08C386.46 486.97 388.63 489.94 391.63 492.18L415.95 508.88C421.55 512.8 426.57 516.4 432.2 520.27L481.25 553.97C483.981 555.688 486.618 557.551 489.15 559.55L513.91 576.55C535.49 591.71 557.91 606.84 579.12 621.76C589.69 629.2 601.51 636.89 611.86 644.17C617.44 648.09 622.46 651.77 628.1 655.57C635.55 660.57 639.1 663.15 645.52 653.93C654.41 641.16 650.31 640.93 627.46 625.34C616.61 617.94 605.76 609.68 594.79 602.79C578.29 592.45 547.31 569.9 529.45 557.79C496.54 535.47 464.45 512.31 431.45 490.19C429.21 488.68 399.75 469.09 399.35 466.85C398.1 459.69 409.46 468.96 410.87 469.85L435.64 486.77C438.2 488.77 446.32 494.77 449.04 495.13C457.69 478.99 444.71 481.95 441.04 474.46L457.15 451.15C455.47 448.94 444.27 441.84 441.02 439.56C436.92 436.68 428.52 430.08 424.65 428.35C420.24 432.55 410.53 450.21 407.24 452.06Z" fill="#FFF200"/>
<path fill-rule="evenodd" clip-rule="evenodd" d="M605.97 448.02C599.97 451.31 600.21 452.41 596.89 457.1L560.89 509.25C558.35 512.89 556.44 515.99 553.83 519.67L539.18 540.77C536.96 543.89 535.25 549.06 537.3 554.09C539.43 559.29 542.82 560.81 546.3 563.23L588.55 592.32C592.05 594.76 596.86 596.58 602.43 594.09C608 591.6 614.74 579.85 618.43 574.57L632.95 553.43C641.61 542.17 656.36 519.23 665.28 506.37C669.28 500.6 674.14 496.77 671.02 487.52C668.94 481.35 656.12 474.31 651.28 470.99C646.2 467.52 619.82 447.75 613.94 446.71C612.563 446.427 611.145 446.407 609.76 446.65L607.85 447.07C605.64 447.77 606.23 447.87 605.97 448.02Z" fill="#FFF200"/>
<path fill-rule="evenodd" clip-rule="evenodd" d="M458.92 497.36C460.27 505.05 465.41 507.29 472.59 512.42C482.46 519.48 494.09 526.42 503 533.06C509 537.53 514.3 542.56 522.15 541.19C528.51 540.07 531.38 534.38 534.02 530.61L579.21 465.38C581.46 462.16 585.31 456.02 588.21 452.17C602.45 433.09 589.64 428.4 575.64 418.77L544.12 397.13C525.29 383.72 520.12 404.36 506.53 422.03C498.82 432.03 486.1 451.88 477.53 463.76L470.44 474.17C465.41 481.77 457.64 489.77 458.92 497.36Z" fill="#FFF200"/>
<path fill-rule="evenodd" clip-rule="evenodd" d="M495.17 346.55C497.38 350.39 513.11 359.82 518.65 363.83C517.883 365.718 516.893 367.508 515.7 369.16C517.96 373.44 548.49 393.26 551.7 395.53L652.42 465.1C660.18 470.55 662.02 473.94 666.16 467.35L675.65 453.92C678.32 454.92 695.65 467.02 697.41 468.62C693.78 474.04 689.17 479.74 685.78 485.31C683.07 489.77 686.2 491.31 689.35 493.31C701.93 501.31 722.75 517.31 731.97 522.74C736.31 525.31 737.74 522.04 739.85 519.08C741.53 516.73 750.85 503.69 751.04 502.08C751.44 498.68 746.13 496.43 743.86 494.79C738.07 490.63 732.59 487.02 726.75 482.96L718.38 477.19L667.38 442.03C664.327 440.216 661.391 438.212 658.59 436.03C654.35 432.63 643.81 426.43 641.59 424.03L589.49 354.11L585.71 356.31C587.71 360.95 626.84 410.91 628.58 414.79L537.58 352.38C528.58 346.19 531.23 347.87 526.03 352.83L509.51 341.83C502.19 336.64 501.69 335.6 497.51 341.64C495.79 344.27 495.98 343.5 495.17 346.55Z" fill="#FFF200"/>
<path fill-rule="evenodd" clip-rule="evenodd" d="M339.75 677.96C342.13 677.54 344.31 673.28 345.51 671.38L360.95 649.09C365.21 643.09 362.33 642.46 353.1 636.22C348.27 632.96 342.55 629.39 337.86 625.93C327.46 618.23 318.18 612.19 308.09 605.18C303.44 601.94 279.49 584.99 277.71 585.3C274.15 585.92 273.03 589.01 271.11 591.9L255.48 614.61C251.24 621.55 256.06 620.61 264.32 627.12C272.58 633.63 291.54 645.77 301.64 653.09C306.16 656.36 336.25 678.57 339.75 677.96Z" fill="#FFF200"/>
<path fill-rule="evenodd" clip-rule="evenodd" d="M199.4 697.62C199.88 700.33 203.91 702.07 205.9 703.51L228.21 718.86C233.21 721.86 237.88 725.77 242.92 729.09C245.63 730.88 247.82 732.46 250.47 734.35L279.95 754.67C282.95 756.88 285.16 758.44 288.1 754.67C290.73 751.24 307.52 726.97 308.28 724.49C308.54 720.8 298.99 715.81 294.78 712.57L279.57 702.17C262.88 690 244.24 677.85 227.46 666.11C223.63 663.43 222.16 662.93 219.23 667.21C216.57 671.1 198.89 694.67 199.4 697.62Z" fill="#FFF200"/>
<path fill-rule="evenodd" clip-rule="evenodd" d="M248.06 625.89L227.43 655.26C224.99 660.06 230.35 661.92 238.27 667.54L298.06 708.68C303.87 712.68 310.43 719.15 313.96 716.68C314.55 716.27 333.45 689.52 334.64 687.34C337.94 681.29 331.43 680.23 323.87 674.44C321.23 672.44 318.97 671.26 316.22 669.37C298.39 657.14 282.76 645.49 264.08 633.37C256.48 628.41 251.82 622.46 248.06 625.89Z" fill="#FFF200"/>
<path fill-rule="evenodd" clip-rule="evenodd" d="M191.23 774.07C193.4 778.79 196.89 781.12 195.71 790.21C194.94 796.11 192.02 799.27 189.21 803.39C185.21 809.19 180.21 816.33 170.47 816.27C166.63 816.27 165.15 815.4 162.31 815.27C160.31 819.64 157.31 820.62 156.41 826.46C153.7 844.84 156.36 842.1 148.85 853.12C147.29 855.41 141.99 862.12 142.47 864.58C142.47 864.58 145.76 868.96 148.79 868.58C151.82 868.2 153.16 864.47 154.73 862.58C161.24 854.77 160.82 852.71 166.82 849.77C188.82 838.96 181.49 841.29 193.6 825.39L233.2 767.39L207.88 750.1L199.2 761.91C196.9 765.59 192.77 770.61 191.23 774.07Z" fill="#FFF200"/>
<path fill-rule="evenodd" clip-rule="evenodd" d="M186.44 722.77C187.73 730.25 191.1 732.89 195.91 736.22C200.08 739.12 203.57 741.73 207.91 744.46C216.56 749.95 251.15 775.26 255.91 777.08C270.76 782.76 281.73 766.92 280.91 762.52C280.44 759.95 247.45 738.13 242.91 734.95L203.84 708.14C198.72 704.54 195.84 700.54 191.71 706.98C188.99 711.19 185.2 715.62 186.44 722.77Z" fill="#FFF200"/>
<path fill-rule="evenodd" clip-rule="evenodd" d="M346.22 424.84C334.62 418.2 334.28 412.37 322.53 429.93C318.11 436.52 308.04 445.72 326.29 453.86C321.42 464.92 304.42 477.6 312.71 484.95C319.33 490.81 324.77 480.95 327.12 477.5C330.3 472.87 333.79 466.84 337.52 462.5C341.16 463.13 348.65 470.81 351.39 470.33C353.95 469.88 355.65 465.9 356.81 464.1C358.46 461.54 360.09 459.5 361.6 457.4C372.93 441.67 372.36 442.84 364.78 437.79C362.58 436.32 360.37 434.39 358.22 433.02C360.42 426.02 375.3 412.4 374.05 405.25C373.29 400.91 369.2 398.97 364.93 400.45C360.13 402.1 350.64 421.58 346.22 424.84Z" fill="#FFF200"/>
<path fill-rule="evenodd" clip-rule="evenodd" d="M640.28 557.36L658.56 550.09C665.3 547.77 671.56 545.7 678.79 543.6C692.56 539.6 707.24 536.31 721.52 532.22C727.09 530.63 736.58 531.73 722.52 522.68L680.52 493.95C677.91 495.45 650.1 536.95 646.96 541.41C644.09 545.58 633.71 558.5 640.28 557.36Z" fill="#FFF200"/>
<path fill-rule="evenodd" clip-rule="evenodd" d="M562.64 363.24C564.404 364.651 566.254 365.95 568.18 367.13L609.06 395.27C607.95 391.6 583.13 361.43 580.11 355.33C583.117 352.604 586.379 350.173 589.85 348.07C591.03 350.07 595.33 356.2 597.03 357.33C599.9 355.98 605.13 351.71 608.03 349.57L629.19 333.77C632.55 331.14 637.06 328.38 639.93 325.44C638.8 323.51 637.53 323.49 635.44 321.82C621.05 310.36 602.55 311.21 590.92 322.82C585.14 328.61 581.44 335.7 576.39 342.82L562.64 363.24Z" fill="#FFF200"/>
<path fill-rule="evenodd" clip-rule="evenodd" d="M621.57 613.26C623.81 615.9 638.71 626.03 642.19 627.88C644.73 625.88 649.65 617.8 651.85 614.56C654.28 610.98 653.36 610.78 658.85 609.29C677.19 604.29 679.29 581.67 665.33 572.29C651.8 563.17 632.79 572.98 633.27 590.29C633.53 599.64 634.55 594.78 626.55 606.29C624.91 608.51 623.41 611.58 621.57 613.26Z" fill="#FFF200"/>
<path fill-rule="evenodd" clip-rule="evenodd" d="M610.64 375.69C611.33 377.3 627.24 399.11 629.7 401.28L647.34 376.05C654.23 366.28 658.02 360.55 655.05 343.62C650.33 345.2 619.69 370.3 610.64 375.69Z" fill="#FFF200"/>
<path fill-rule="evenodd" clip-rule="evenodd" d="M599.92 361.58C601.42 363.58 606.45 369.75 607.21 372.11C610.54 371.25 620.73 362.77 624.44 360L666.98 328.36C669.98 326.2 671.98 322.93 669.55 318.76C664.94 310.88 655.74 319.49 651.06 323.12C645.06 327.77 639.72 331.6 633.97 335.93C631.11 338.08 601.4 359.6 599.92 361.58Z" fill="#FFF200"/>
<path fill-rule="evenodd" clip-rule="evenodd" d="M447.41 435.47C450.87 433.77 470.64 403.97 474.35 398.77C477.66 394.12 500.14 363.57 499.69 361C499.455 359.867 498.821 358.856 497.903 358.152C496.985 357.447 495.845 357.095 494.69 357.16C492.26 357.38 491.38 359.76 490.22 361.44L467.7 393.52C462.61 400.67 458 407.32 452.94 414.52C446.64 423.43 436.23 433.85 447.41 435.47Z" fill="#FFF200"/>
<path fill-rule="evenodd" clip-rule="evenodd" d="M405.64 190.58C629.64 190.58 811.28 372.19 811.28 596.22C811.28 775.36 695.16 927.36 534.08 981.09C541.21 972.26 541.68 960.94 536.32 951.02C533.38 945.56 535.69 938.79 537.5 933.35C537.94 932.41 539.93 930.98 540.86 930.41C544.043 928.595 547.573 927.47 551.22 927.11C562.88 925.75 581.81 926.46 588.81 915.02C590.385 915.391 592.027 915.367 593.59 914.95C605.302 911.985 616.307 906.716 625.96 899.45C644.81 885.28 657.26 864.67 663.72 842.2C670.92 817.14 670.67 790.2 664.96 764.87C654.51 718.53 627.31 679.81 591.86 650.07C592.467 647.963 593.04 645.837 593.58 643.69C597.77 646.53 601.96 649.38 606.11 652.3C611.57 656.14 616.97 660.08 622.51 663.81C627.29 667.03 632.02 670.28 638.09 670.03C645.09 669.74 649.94 665.03 653.72 659.59C657.37 654.36 660.72 648.68 659.67 642.02C658.9 637.36 656.22 633.88 652.9 630.93C655.58 627.42 658.05 623.24 660.13 620.18C660.37 619.83 660.59 619.47 660.82 619.11L661.45 618.94C674.12 615.47 683.16 605.21 684.27 592.03C684.747 586.582 683.757 581.105 681.403 576.169C679.048 571.233 675.415 567.017 670.88 563.96C668.004 562.013 664.814 560.575 661.45 559.71L662.04 559.48C668.52 557.24 675.04 555.12 681.59 553.2C695.72 549.08 710.11 545.89 724.27 541.84C724.748 541.715 725.232 541.615 725.72 541.54C731.27 540.54 736.72 539.48 739.1 533.41C739.16 533.25 739.22 533.1 739.27 532.95L740.04 532.64C744.04 530.89 745.67 528.26 748.04 524.94C750.04 522.18 751.993 519.403 753.9 516.61C756.26 513.16 760.54 507.43 761.03 503.31C761.76 497.1 758.16 492.26 753.27 488.94C752.13 488.17 750.84 487.5 749.75 486.73C744.08 482.65 738.25 478.8 732.51 474.81C729.72 472.87 726.91 470.95 724.11 469.02L673.11 433.85L672.6 433.52C669.925 431.962 667.356 430.228 664.91 428.33C662.24 426.18 659.21 424.24 656.35 422.33C653.842 420.807 651.412 419.158 649.07 417.39L639.55 404.61L655.55 381.75C665.3 367.81 667.98 359.75 664.99 342.31L672.99 336.36C680.41 330.84 683.1 322.01 678.22 313.68C677.136 311.712 675.647 309.996 673.851 308.646C672.055 307.296 669.992 306.343 667.8 305.85C661.86 304.58 656.1 307.05 651.28 310.34C649.06 311.86 647.07 313.55 644.95 315.19L644.35 315.65C643.49 315.05 642.47 314.56 641.7 313.95C624.31 300.09 599.92 299.67 583.88 315.72C577.46 322.13 573.46 329.66 568.27 336.95C568.22 337.02 568.17 337.08 568.12 337.16L557.02 353.63L543.31 344.23C538.52 340.94 533.72 337.06 527.45 338.97C526.543 339.236 525.67 339.609 524.85 340.08L515.25 333.7C510.72 330.47 506.35 326.86 500.33 327.75C495.16 328.52 492.14 332.02 489.33 336.03C487.47 338.344 486.163 341.053 485.51 343.95C484.89 346.155 485.074 348.509 486.03 350.59C484.79 351.722 483.713 353.021 482.83 354.45C482.57 354.86 482.32 355.31 482.05 355.7L459.52 387.77L446.24 406.69C425.766 402.33 404.722 401.3 383.92 403.64V403.51C382.07 392.91 371.59 387.51 361.67 390.98C355.25 393.21 350.2 401.67 346.67 407.19C345.98 408.26 345.02 409.86 343.98 411.5C341.183 409.573 337.903 408.468 334.51 408.31C325 408.17 318.93 417.31 314.23 424.31C313.89 424.82 313.55 425.31 313.23 425.8C274.496 446.864 244.089 480.49 227.014 521.141C209.939 561.791 207.215 607.044 219.29 649.45C219.022 649.838 218.778 650.242 218.56 650.66C217.761 652.206 217.234 653.876 217 655.6C214.584 657.094 212.534 659.11 211 661.5C207.67 666.36 204 671.12 200.65 675.96C198.25 679.4 195.84 682.9 193.65 686.47C192 689.16 190.25 692.09 189.65 695.22C187.073 696.773 184.909 698.923 183.34 701.49C178.34 709.15 174.92 714.67 176.61 724.49C178.3 734.31 182.5 739.09 190.23 744.49C192.31 745.93 194.36 747.4 196.42 748.84L191.16 755.99C191.01 756.21 190.88 756.39 190.74 756.62C187.94 761.1 184.31 765.12 182.13 769.99C181.52 771.281 181.204 772.692 181.204 774.12C181.204 775.548 181.52 776.959 182.13 778.25C184.27 782.92 186.46 783.66 185.78 788.93C185.34 792.28 182.78 795.05 180.93 797.76C178.46 801.38 175.5 806.3 170.53 806.27C168.03 806.27 165.53 805.41 162.86 805.27C160.829 805.133 158.806 805.628 157.069 806.688C155.332 807.749 153.966 809.321 153.16 811.19C152.66 812.087 152.067 812.928 151.39 813.7C148.755 816.948 147.064 820.857 146.5 825C145.91 829 145.5 832.91 145.07 836.91C144.994 838.283 144.806 839.647 144.51 840.99C144 842.68 141.57 845.99 140.58 847.47C139.37 849.24 138.08 850.93 136.89 852.72C134.23 856.77 131.64 861.46 132.64 866.51C133.38 870.25 136.96 873.84 140.03 875.88C142.952 877.94 146.527 878.858 150.08 878.46C154.71 877.85 158.21 875.2 160.81 871.46C161.38 870.64 161.87 869.71 162.44 868.91C164.19 866.83 165.8 864.7 167.38 862.49C167.989 861.59 168.657 860.732 169.38 859.92C169.933 859.443 170.557 859.055 171.23 858.77C177.99 855.45 187.05 851.43 191.94 845.53C193.452 843.588 194.832 841.547 196.07 839.42C197.78 836.67 199.59 834.06 201.56 831.48L201.86 831.06L238.25 777.77C239.18 778.41 240.12 779.05 241.07 779.68C244.18 781.78 248.85 785.13 252.31 786.45C262.31 790.29 272.63 788.08 280.72 781.25C285.09 777.56 289.72 771.49 290.72 765.34C292.783 764.181 294.579 762.6 295.99 760.7C296.77 759.7 297.53 758.7 298.3 757.61C330.079 778.81 367.439 790.094 405.64 790.03C413.693 790.03 421.738 789.532 429.73 788.54C432.5 799.71 435.57 810.82 439.17 821.75C439.832 823.867 441.202 825.693 443.05 826.92C442.05 831.43 442.99 836.55 444.28 840.92C447.28 851.14 452.96 862.02 458.11 871.31C466.373 886.175 476.256 900.08 487.58 912.77C493.26 919.12 501.58 927.89 508.69 932.64C509.42 933.12 511.31 934.59 511.44 935.58C511.75 938.06 504.09 942.44 502.44 943.23C487.27 950.64 483.96 965.89 493.69 979.14C496.858 983.517 501.069 987.033 505.94 989.37C251.45 1054.16 -0.0600586 862.31 -0.0600586 596.24C-0.0600586 372.24 181.55 190.6 405.58 190.6L405.64 190.58ZM493.15 423.26C494.93 420.767 496.747 418.313 498.6 415.9C502.91 410.31 506.37 404.2 510.34 398.39C513.34 394.02 516.69 389.72 521.01 386.74C514.29 381.82 508.53 377.02 506.85 373.83C506.388 372.973 506.051 372.053 505.85 371.1C505.38 371.86 504.91 372.6 504.43 373.35C501.6 377.75 498.6 382.07 495.58 386.35C491.27 392.49 486.83 398.51 482.48 404.62C479.99 408.12 477.56 411.69 475.12 415.26C481.252 417.618 487.26 420.288 493.12 423.26H493.15ZM623.57 584.84C619.8 590.57 615.57 597.05 610.26 600.97C612.073 602.21 613.873 603.467 615.66 604.74C616.57 603.39 617.54 601.59 618.3 600.5C619.68 598.5 621.1 596.58 622.58 594.68L623.39 593.68C623.39 592.62 623.26 591.53 623.23 590.52C623.177 588.624 623.29 586.726 623.57 584.85V584.84ZM673.57 474.38C675.177 475.821 676.628 477.426 677.9 479.17C679.69 476.32 681.65 473.6 683.62 470.89C682.77 470.31 681.93 469.75 681.14 469.2C680.35 468.65 679.43 468.01 678.49 467.36L674.56 472.92C674.24 473.42 673.91 473.92 673.56 474.38H673.57ZM406.02 234.61C206.24 234.61 44.2899 396.61 44.2899 596.35C44.1642 683.935 75.9451 768.567 133.69 834.42C134.2 830.47 134.47 826.19 135.04 822.3C136.2 814.41 138.64 810.77 142.91 804.77C144.741 800.925 147.685 797.719 151.36 795.567C155.035 793.415 159.271 792.416 163.52 792.7C165.386 792.856 167.243 793.117 169.08 793.48C169.93 792.42 170.86 790.99 171.37 790.23C172.1 789.17 173.23 787.76 174.02 786.54C173.19 785.11 172.35 783.72 171.6 782.1C170.274 779.318 169.579 776.276 169.565 773.194C169.551 770.112 170.219 767.064 171.52 764.27C173.9 758.95 177.2 755.15 180.21 750.53C171.98 744.06 167.13 736.87 165.21 725.53C162.98 712.59 166.98 704.59 173.63 694.3C175.34 691.609 177.44 689.186 179.86 687.11C180.957 684.47 182.275 681.928 183.8 679.51C184.8 677.93 185.8 676.36 186.8 674.81C177.801 649.645 173.214 623.116 173.24 596.39C173.2 467.77 277.44 363.53 406.02 363.53C423.387 363.521 440.702 365.453 457.64 369.29L472.4 348.29C472.77 347.71 473.14 347.14 473.53 346.59C473.449 344.378 473.701 342.167 474.28 340.03C475.278 335.824 477.156 331.878 479.79 328.45C484.51 321.68 489.97 316.62 498.58 315.34C508.25 313.9 514.58 318.06 521.76 323.19L526.46 326.32C535.68 324.45 542.46 328.64 549.82 333.72L553.89 336.52L558.46 329.73L558.78 329.27C564.46 321.27 568.56 313.65 575.63 306.57C582.798 299.33 591.925 294.342 601.89 292.22C543.517 254.525 475.485 234.524 406 234.63L406.02 234.61ZM677.54 357.36C676.72 367.89 672.67 376.47 665.01 387.42L653.83 403.42L657.37 408.17C662.02 411.66 667.5 414.55 672.16 418.3C674.208 419.867 676.352 421.303 678.58 422.6C678.97 422.83 679.3 423.05 679.68 423.31L730.68 458.47C733.49 460.41 736.31 462.34 739.11 464.29C740.81 465.47 742.513 466.64 744.22 467.8C728.793 427.287 706.207 389.879 677.54 357.36ZM760.88 525.95C759.66 527.66 758.48 529.25 757.47 530.67C754.47 534.88 752.06 538.07 747.94 540.58C743.46 547.91 736.18 550.44 727.76 551.94C727.58 551.94 727.4 552.01 727.46 551.94C714.16 555.75 700.65 558.79 687.34 562.57C704.18 584.19 695.66 617.8 668.23 627.89L667.35 629.23C669.244 632.235 670.522 635.587 671.11 639.09C672.77 649.09 668.76 657.24 663.23 665.17C657.29 673.7 649.42 680.12 638.57 680.57H638.11C656.11 704.22 669.5 731.24 676.27 761.29C681.7 785.37 682.34 811.49 676.98 835.91C713.89 794.187 740.665 744.503 755.218 690.731C769.771 636.96 771.709 580.554 760.88 525.91V525.95ZM478.92 950.77C481.794 943.877 486.779 938.072 493.16 934.19C475.79 918.81 457.48 893.12 447.97 875.98C442.18 865.52 432.88 848.79 431.32 833.74C430.653 831.853 429.987 829.953 429.32 828.04C377.764 833.202 325.958 821.045 282.08 793.49C277.016 796.51 271.329 798.336 265.453 798.828C259.577 799.32 253.666 798.466 248.17 796.33C245.797 795.36 243.506 794.2 241.32 792.86L211.43 836.57C211.21 836.89 211.01 837.16 210.78 837.47C207.24 842.11 204.46 847.55 200.86 851.89C194.72 859.3 185.64 863.6 177.1 867.77C175.75 869.52 174.48 871.32 173.1 873.11C214.905 908.302 264.137 933.571 317.102 947.02C370.066 960.47 425.389 961.752 478.92 950.77Z" fill="white"/>
</g>
<defs>
<clipPath id="clip0_119_2023">
<rect width="811.29" height="1002.01" fill="white"/>
</clipPath>
</defs>
</svg>
